<?xml version="1.0" encoding="utf-8"?>
<!-- Generator: Adobe Illustrator 21.1.0, SVG Export Plug-In . SVG Version: 6.00 Build 0)  -->
<svg version="1.0" xmlns="http://www.w3.org/2000/svg" xmlns:xlink="http://www.w3.org/1999/xlink" x="0px" y="0px"
	 viewBox="0 0 378 207" enable-background="new 0 0 378 207" xml:space="preserve">
<g id="Blocks">
	<g id="Middle_Block">
		<polygon fill="#FFFFFF" points="129.8,182.3 194.8,9.5 237.8,9.7 172.8,182.5 		"/>
		<path d="M195.1,10l41.9,0.2l-11,29.4l-53.6,142.4l-41.9-0.2L195.1,10 M194.5,9c-21.8,57.9-43.6,115.9-65.4,173.8
			c14.7,0.1,29.4,0.1,44,0.2C194.9,125,216.7,67.1,238.5,9.2C223.8,9.1,209.1,9.1,194.5,9L194.5,9z"/>
	</g>
	<path id="Right_Block" fill="#FFFFFF" stroke="#000000" stroke-miterlimit="10" d="M358.1,139.3c-47.3,0-94.5,0-141.8,0
		c-7.3,14.5-14.5,29-21.8,43.5c47.3,0,94.5,0,141.8,0C343.5,168.3,350.8,153.8,358.1,139.3z"/>
	<path id="Left_Block" fill="#FFFFFF" stroke="#000000" stroke-miterlimit="10" d="M161.7,9c0,14.5,0,29,0,43.4
		C110.8,95.9,59.9,139.3,9,182.8c0-14.5,0-29,0-43.4C59.9,95.9,110.8,52.4,161.7,9z"/>
</g>
<g id="Shadows">
	<path id="Left_Shadow_1_" d="M161.7,9l10.9,10.9v43.4c-50.9,43.4-101.8,86.9-152.7,130.3c-3.6-3.6-7.3-7.2-10.9-10.9L161.7,52.4V9z
		"/>
	<polygon id="Middle_Shadow_1_" points="238.1,9 249,19.9 183.5,193.6 139.9,193.6 129,182.8 172.6,182.8 	"/>
	<polygon id="Right_Shadow_1_" points="358.1,139.3 369,150.2 347.2,193.6 205.4,193.6 194.5,182.8 336.3,182.8 	"/>
</g>
<g id="Typography">
	<g>
	</g>
	<g>
	</g>
	<g>
	</g>
	<g>
	</g>
	<g>
	</g>
	<g>
	</g>
	<g>
	</g>
	<g>
	</g>
	<g>
	</g>
	<g>
	</g>
	<g>
	</g>
	<g>
	</g>
	<g>
	</g>
	<g>
	</g>
	<g>
	</g>
</g>
</svg>
