<svg id="Layer_1" data-name="Layer 1" xmlns="http://www.w3.org/2000/svg" viewBox="0 0 377.5 194.4"><defs><style>.cls-1,.cls-2{fill:#fff;}.cls-2{stroke:#000;stroke-miterlimit:10;}</style></defs><title>logo_emblem1</title><g id="Blocks"><g id="Middle_Block" data-name="Middle Block"><polygon class="cls-1" points="127 182.57 195.07 1.61 240.1 1.82 172.03 182.78 127 182.57"/><path d="M195.89,8.05l43.88.21L228.25,39,172.12,188.17,128.24,188,195.89,8.05M195.26,7Q161,97.95,126.77,189c15.4.1,30.79.1,46.08.21q34.25-91.11,68.49-182c-15.4-.11-30.79-.11-46.08-.21Z" transform="translate(-0.5 -5.92)"/></g><path id="Right_Block" data-name="Right Block" class="cls-2" d="M366.59,143.45H218.09c-7.65,15.19-15.19,30.37-22.83,45.56h148.5Q355.07,166.23,366.59,143.45Z" transform="translate(-0.5 -5.92)"/><path id="Left_Block" data-name="Left Block" class="cls-2" d="M160.91,7V52.45Q81,120.78,1,189V143.56Q80.95,75.22,160.91,7Z" transform="translate(-0.5 -5.92)"/></g><g id="Shadows"><path id="Left_Shadow" data-name="Left Shadow" d="M160.91,7l11.42,11.41V63.86Q92.36,132,12.41,200.32C8.64,196.55,4.77,192.78,1,188.9L160.91,52.45Z" transform="translate(-0.5 -5.92)"/><polygon id="Middle_Shadow" data-name="Middle Shadow" points="240.42 1.08 251.83 12.5 183.24 194.4 137.58 194.4 126.17 183.09 171.83 183.09 240.42 1.08"/><polygon id="Right_Shadow" data-name="Right Shadow" points="366.08 137.54 377.5 148.95 354.67 194.4 206.17 194.4 194.76 183.09 343.26 183.09 366.08 137.54"/></g></svg>